<svg id="Capa_1" enable-background="new 0 0 512 512" height="512" viewBox="0 0 512 512" width="512" xmlns="http://www.w3.org/2000/svg"><g><g><g><g><g><g><g><g><g><circle cx="256" cy="256" fill="#a3d4ff" r="256"/></g></g></g></g></g></g></g></g><path d="m511.979 259.317-125.011-125.011-261.936 300.694 69.596 69.596c19.662 4.838 40.217 7.404 61.372 7.404 140.277 0 254.203-112.827 255.979-252.683z" fill="#65b1fc"/><g><path d="m329.662 77h-204.63v358h261.936v-300.694z" fill="#fff"/></g><g><path d="m386.968 134.306-57.306-57.306h-73.542v358h130.848z" fill="#e9edf5"/></g><g><path d="m181.511 331.887h249.132v34.31h-249.132z" fill="#bec3d2"/></g><g><path d="m305.518 331.887h125.125v34.311h-125.125z" fill="#9196aa"/></g><g><g><path d="m213.017 395.287c-9.962 0-18.037-8.076-18.037-18.037v-56.415c0-9.962 8.076-18.037 18.037-18.037 9.962 0 18.037 8.076 18.037 18.037v56.415c.001 9.962-8.075 18.037-18.037 18.037z" fill="#636978"/></g><g><path d="m245.882 413.47c-9.962 0-18.037-8.076-18.037-18.037v-92.78c0-9.962 8.076-18.037 18.037-18.037 9.962 0 18.037 8.076 18.037 18.037v92.78c0 9.961-8.075 18.037-18.037 18.037z" fill="#555a66"/></g><g><path d="m399.137 302.798c9.962 0 18.037 8.076 18.037 18.037v56.415c0 9.962-8.076 18.037-18.037 18.037-9.962 0-18.037-8.076-18.037-18.037v-56.415c-.001-9.962 8.075-18.037 18.037-18.037z" fill="#414952"/></g><g><path d="m366.272 284.615c9.962 0 18.037 8.076 18.037 18.037v92.78c0 9.962-8.076 18.037-18.037 18.037-9.962 0-18.037-8.076-18.037-18.037v-92.78c0-9.961 8.075-18.037 18.037-18.037z" fill="#333940"/></g></g><g><path d="m157.993 142.558h62.066v29.973h-62.066z" fill="#e9edf5"/></g><g><path d="m157.993 237.263h126.018v29.973h-126.018z" fill="#e9edf5"/></g><g><path d="m256.12 237.263h27.89v29.973h-27.89z" fill="#cdd2e1"/></g><g><path d="m157.993 189.91h176.745v29.973h-176.745z" fill="#e9edf5"/></g><g><path d="m256.12 189.91h78.617v29.973h-78.617z" fill="#cdd2e1"/></g><g><path d="m329.662 134.306h57.306l-57.306-57.306z" fill="#cdd2e1"/></g></g></svg>